<svg width="32" height="32" viewBox="0 0 32 32" fill="none" xmlns="http://www.w3.org/2000/svg">
<path d="M30.5004 7.5V13.5293C30.3027 13.5408 30.0478 13.5558 29.7474 13.5713C28.9926 13.6102 27.9501 13.6564 26.7992 13.6875C24.4839 13.7501 21.7733 13.7481 20.0707 13.5049C19.8472 13.473 19.7059 13.3848 19.6039 13.2646C19.4932 13.1343 19.4034 12.9346 19.35 12.6504C19.2413 12.0725 19.3102 11.2861 19.476 10.4521C19.6393 9.63052 19.8855 8.8141 20.0931 8.19922C20.1895 7.91404 20.2775 7.67448 20.3431 7.5H30.5004Z" fill="white" stroke="white" stroke-linejoin="round"/>
<mask id="path-2-inside-1_16_2" fill="white">
<path d="M1 30C1 30.5523 1.44772 31 2 31H30C30.5523 31 31 30.5523 31 30V14C31 13.4477 30.5523 13 30 13H2C1.44772 13 1 13.4477 1 14V30Z"/>
</mask>
<path d="M0 30C0 31.1046 0.895431 32 2 32H30C31.1046 32 32 31.1046 32 30H30H2H0ZM2 30M31 13H1H31M2 13C0.895431 13 0 13.8954 0 15V30C0 31.1046 0.895431 32 2 32V30V14C2 13.4477 2 13 2 13ZM30 32C31.1046 32 32 31.1046 32 30V15C32 13.8954 31.1046 13 30 13C30 13 30 13.4477 30 14V30V32Z" fill="white" mask="url(#path-2-inside-1_16_2)"/>
<line x1="21" y1="13.5" x2="2" y2="13.5" stroke="white"/>
</svg>
