<svg width="32" height="32" viewBox="0 0 32 32" fill="none" xmlns="http://www.w3.org/2000/svg">
<path d="M29.5 4.5V10.3135C29.3069 10.3246 29.0595 10.3387 28.7686 10.3535C28.0263 10.3912 27.001 10.4366 25.8691 10.4668C23.5925 10.5274 20.9272 10.5247 19.2529 10.2891C19.0335 10.2582 18.896 10.1733 18.7979 10.0596C18.6913 9.93585 18.6029 9.74558 18.5508 9.47266C18.4447 8.91691 18.5119 8.15828 18.6748 7.35059C18.8352 6.55559 19.0772 5.76548 19.2812 5.16992C19.3744 4.89803 19.4593 4.66826 19.5234 4.5H29.5Z" fill="white" stroke="white" stroke-linejoin="round"/>
<mask id="path-2-inside-1_16_2" fill="white">
<path d="M2 27C2 27.5523 2.44772 28 3 28H29C29.5523 28 30 27.5523 30 27V11C30 10.4477 29.5523 10 29 10H3C2.44771 10 2 10.4477 2 11V27Z"/>
</mask>
<path d="M1 27C1 28.1046 1.89543 29 3 29H29C30.1046 29 31 28.1046 31 27H29H3H1ZM3 27M30 10H2H30M3 10C1.89543 10 1 10.8954 1 12V27C1 28.1046 1.89543 29 3 29V27V11C3 10.4477 3 10 3 10ZM29 29C30.1046 29 31 28.1046 31 27V12C31 10.8954 30.1046 10 29 10C29 10 29 10.4477 29 11V27V29Z" fill="white" mask="url(#path-2-inside-1_16_2)"/>
<line x1="20" y1="10.5" x2="3" y2="10.5" stroke="white"/>
</svg>
