<svg width="32" height="32" viewBox="0 0 32 32" fill="none" xmlns="http://www.w3.org/2000/svg">
<path d="M13.2719 6V5C13.6656 5 14.0226 5.23096 14.184 5.59001L13.2719 6ZM4 6H3C3 5.44772 3.44771 5 4 5V6ZM4 11.3712L3.93942 12.3693C3.41163 12.3373 3 11.8999 3 11.3712H4ZM13.2719 11.3712L13.4009 12.3628L13.2719 11.3712ZM13.2719 6V7H4V6V5H13.2719V6ZM4 6H5V11.3712H4H3V6H4ZM4 11.3712C4.06058 10.373 4.06056 10.373 4.06056 10.373C4.06059 10.373 4.06063 10.373 4.06069 10.373C4.06083 10.373 4.06106 10.373 4.06138 10.373C4.06203 10.3731 4.06306 10.3731 4.06447 10.3732C4.06728 10.3734 4.0716 10.3737 4.07738 10.374C4.08895 10.3747 4.10638 10.3757 4.12939 10.377C4.17539 10.3797 4.24367 10.3836 4.33185 10.3884C4.50824 10.398 4.76417 10.4113 5.08074 10.4262C5.71422 10.4559 6.58894 10.4916 7.55424 10.5153C9.50859 10.5634 11.7543 10.5601 13.143 10.3795L13.2719 11.3712L13.4009 12.3628C11.8394 12.5659 9.44912 12.5626 7.50505 12.5147C6.52115 12.4905 5.63104 12.4542 4.987 12.424C4.66481 12.4089 4.4038 12.3953 4.22294 12.3854C4.13251 12.3805 4.06208 12.3765 4.01405 12.3737C3.99003 12.3723 3.9716 12.3712 3.95906 12.3705C3.9528 12.3701 3.948 12.3698 3.94472 12.3696C3.94307 12.3695 3.94181 12.3695 3.94092 12.3694C3.94048 12.3694 3.94014 12.3694 3.93989 12.3693C3.93976 12.3693 3.93964 12.3693 3.93958 12.3693C3.93949 12.3693 3.93942 12.3693 4 11.3712ZM13.2719 11.3712L13.143 10.3795C13.2222 10.3692 13.2146 10.3527 13.1956 10.373C13.19 10.379 13.2261 10.344 13.2549 10.2044C13.3182 9.89825 13.2851 9.40462 13.1503 8.78768C13.0215 8.1978 12.8247 7.60235 12.6551 7.14534C12.5712 6.91915 12.4959 6.73191 12.4421 6.60245C12.4152 6.53782 12.3938 6.48786 12.3795 6.45494C12.3724 6.43849 12.3671 6.42631 12.3637 6.41872C12.362 6.41492 12.3608 6.41227 12.3602 6.4108C12.3599 6.41007 12.3597 6.40963 12.3596 6.4095C12.3596 6.40943 12.3596 6.40944 12.3596 6.40952C12.3596 6.40956 12.3597 6.40968 12.3597 6.4097C12.3598 6.40984 12.3598 6.40999 13.2719 6C14.184 5.59001 14.1841 5.5902 14.1842 5.59042C14.1842 5.59051 14.1843 5.59075 14.1844 5.59095C14.1846 5.59134 14.1848 5.59181 14.1851 5.59235C14.1855 5.59345 14.1862 5.59485 14.1869 5.59655C14.1884 5.59997 14.1905 5.6046 14.1931 5.61041C14.1982 5.62204 14.2054 5.6384 14.2144 5.65918C14.2324 5.70074 14.2578 5.76009 14.2889 5.8348C14.3509 5.98402 14.436 6.19553 14.5302 6.44971C14.7171 6.95345 14.948 7.64517 15.1043 8.36099C15.2547 9.04976 15.3641 9.88038 15.2135 10.6091C15.1355 10.987 14.9755 11.3971 14.658 11.7373C14.3272 12.092 13.8918 12.299 13.4009 12.3628L13.2719 11.3712ZM27.1429 25V26H4.85714V25V24H27.1429V25ZM4 24.2428H3V12.1283H4H5V24.2428H4ZM4.85714 11.3712V10.3712H27.1429V11.3712V12.3712H4.85714V11.3712ZM28 12.1283H29V24.2428H28H27V12.1283H28ZM27.1429 11.3712V10.3712C28.0484 10.3712 29 11.0449 29 12.1283H28H27C27 12.2386 27.0529 12.3124 27.0869 12.3424C27.119 12.3708 27.1417 12.3712 27.1429 12.3712V11.3712ZM4 12.1283H3C3 11.0449 3.95164 10.3712 4.85714 10.3712V11.3712V12.3712C4.85827 12.3712 4.88099 12.3708 4.91309 12.3424C4.94709 12.3124 5 12.2386 5 12.1283H4ZM4.85714 25V26C3.95164 26 3 25.3262 3 24.2428H4H5C5 24.1325 4.94709 24.0588 4.91309 24.0288C4.88099 24.0004 4.85827 24 4.85714 24V25ZM27.1429 25V24C27.1417 24 27.119 24.0004 27.0869 24.0288C27.0529 24.0588 27 24.1325 27 24.2428H28H29C29 25.3262 28.0484 26 27.1429 26V25Z" fill="white"/>
</svg>
