<svg width="128" height="128" viewBox="0 0 128 128" fill="none" xmlns="http://www.w3.org/2000/svg">
<path d="M92 93.5C92 105.374 79.2401 115 63.5 115C47.7599 115 35 105.374 35 93.5C35 81.6259 48.2599 52.5 64 52.5C79.7401 52.5 92 81.6259 92 93.5Z" fill="#D9D9D9"/>
<path d="M86 57.5C86 67.165 74.9787 76 62 76C49.0213 76 41 68.165 41 58.5C41 48.835 49.5213 40 62.5 40C75.4787 40 86 47.835 86 57.5Z" fill="#D9D9D9"/>
<rect x="60" y="14" width="7" height="31" fill="#D9D9D9"/>
<rect x="52" y="23" width="23" height="1" fill="#D9D9D9"/>
<rect x="53" y="19" width="23" height="1" fill="#D9D9D9"/>
<rect x="52" y="26" width="23" height="1" fill="#D9D9D9"/>
<path d="M72 55.25C72 59.2541 68.1944 62.5 63.5 62.5C58.8056 62.5 55 59.2541 55 55.25C55 51.2459 58.8056 48 63.5 48C68.1944 48 72 51.2459 72 55.25Z" fill="black"/>
<rect x="54" y="87" width="18" height="2" fill="black"/>
<rect x="58" y="87" width="11" height="5" fill="black"/>
<circle cx="65" cy="23" r="1" fill="black"/>
<circle cx="62" cy="26" r="1" fill="black"/>
<circle cx="65" cy="26" r="1" fill="black"/>
<circle cx="62" cy="23" r="1" fill="black"/>
<circle cx="65" cy="19" r="1" fill="black"/>
<circle cx="62" cy="19" r="1" fill="black"/>
</svg>
