<svg width="128" height="128" viewBox="0 0 128 128" fill="none" xmlns="http://www.w3.org/2000/svg">
<path d="M59.5534 66.8351C78.2983 43.0116 94.5684 24.154 95.8935 24.7154C97.2187 25.2768 83.0973 45.0446 64.3523 68.8681C45.6074 92.6916 29.3374 111.549 28.0122 110.988C26.687 110.426 40.8085 90.6585 59.5534 66.8351Z" fill="#D9D9D9"/>
<path d="M93.875 22.6361C96.1703 19.7189 99.3739 17.923 101.03 18.6247C102.687 19.3265 102.169 22.2602 99.8737 25.1774C97.5784 28.0945 94.3748 29.8905 92.7184 29.1887C91.0619 28.4869 91.5797 25.5532 93.875 22.6361Z" fill="#D9D9D9"/>
<path d="M68.4466 66.3623C49.7017 42.5388 33.4316 23.6812 32.1065 24.2426C30.7813 24.804 44.9027 44.5718 63.6477 68.3953C82.3926 92.2188 98.6626 111.076 99.9878 110.515C101.313 109.954 87.1915 90.1857 68.4466 66.3623Z" fill="#D9D9D9"/>
<path d="M34.125 22.1633C31.8297 19.2461 28.6261 17.4502 26.9696 18.1519C25.3132 18.8537 25.831 21.7874 28.1263 24.7046C30.4216 27.6217 33.6252 29.4177 35.2816 28.7159C36.9381 28.0141 36.4203 25.0804 34.125 22.1633Z" fill="#D9D9D9"/>
</svg>
