<svg width="128" height="128" viewBox="0 0 128 128" fill="none" xmlns="http://www.w3.org/2000/svg">
<rect x="14" y="22" width="8" height="35" fill="#D9D9D9"/>
<rect x="47" y="22" width="8" height="35" fill="#D9D9D9"/>
<rect x="25" y="22" width="8" height="35" fill="#D9D9D9"/>
<rect x="36" y="22" width="8" height="35" fill="#D9D9D9"/>
<rect x="14" y="72" width="8" height="35" fill="#D9D9D9"/>
<rect x="47" y="72" width="8" height="35" fill="#D9D9D9"/>
<rect x="25" y="72" width="8" height="35" fill="#D9D9D9"/>
<rect x="36" y="72" width="8" height="35" fill="#D9D9D9"/>
<rect x="69" y="22" width="8" height="35" fill="#D9D9D9"/>
<rect x="102" y="22" width="8" height="35" fill="#D9D9D9"/>
<rect x="80" y="22" width="8" height="35" fill="#D9D9D9"/>
<rect x="91" y="22" width="8" height="35" fill="#D9D9D9"/>
<rect x="69" y="72" width="8" height="35" fill="#D9D9D9"/>
<rect x="102" y="72" width="8" height="35" fill="#D9D9D9"/>
<rect x="80" y="72" width="8" height="35" fill="#D9D9D9"/>
<rect x="91" y="72" width="8" height="35" fill="#D9D9D9"/>
</svg>
