<svg width="128" height="128" viewBox="0 0 128 128" fill="none" xmlns="http://www.w3.org/2000/svg">
<path d="M48.7129 57.0957C49.3313 57.0957 49.833 57.5296 49.833 58.0645V61.8926C51.0908 62.2209 52.305 62.6337 53.4678 63.1201L56.6143 60.4424C57.0549 60.0675 57.7694 60.0674 58.21 60.4424L66.9512 67.8867C67.3919 68.262 67.3919 68.8699 66.9512 69.2451L64.0928 71.6787C64.9811 73.0274 65.697 74.4678 66.2158 75.9795H68.8691C69.4876 75.9795 69.9893 76.4134 69.9893 76.9482V85.6641C69.989 86.1987 69.4874 86.6318 68.8691 86.6318H66.5186C66.0387 88.3344 65.3109 89.955 64.3701 91.4668L66.9512 93.6641C67.3919 94.0393 67.3919 94.6482 66.9512 95.0234L58.21 102.467C57.7694 102.842 57.055 102.842 56.6143 102.467L53.9912 100.233C52.671 100.819 51.2809 101.309 49.833 101.687V105.031C49.833 105.566 49.3313 106 48.7129 106H36.3955C35.7771 106 35.2754 105.566 35.2754 105.031V101.687C33.6931 101.274 32.1793 100.729 30.751 100.068L27.9355 102.467C27.4949 102.842 26.7796 102.842 26.3389 102.467L17.5977 95.0234C17.157 94.6482 17.157 94.0393 17.5977 93.6641L20.5459 91.1523C19.6978 89.731 19.0365 88.2168 18.5898 86.6318H15.1201C14.5018 86.6318 14.0003 86.1987 14 85.6641V76.9482C14 76.4134 14.5017 75.9795 15.1201 75.9795H18.8926C19.3721 74.5823 20.0196 73.2456 20.8164 71.9863L17.5977 69.2451C17.157 68.8699 17.157 68.262 17.5977 67.8867L26.3389 60.4424C26.7796 60.0672 27.4949 60.0671 27.9355 60.4424L31.2666 63.2783C32.5419 62.7217 33.8824 62.2572 35.2754 61.8936V58.0645C35.2754 57.5297 35.7771 57.0958 36.3955 57.0957H48.7129ZM42.2744 64.3584C31.2974 64.3585 22.3987 72.1633 22.3984 81.79C22.3987 91.4167 31.2974 99.2206 42.2744 99.2207C53.2515 99.2207 62.1501 91.4168 62.1504 81.79C62.1501 72.1633 53.2515 64.3584 42.2744 64.3584Z" fill="white"/>
<path d="M74.4688 21C74.8807 21.0002 75.2147 21.2581 75.2148 21.5762V23.8555C76.0535 24.0509 76.8633 24.2963 77.6387 24.5859L79.7354 22.9922C80.029 22.7689 80.505 22.7691 80.7988 22.9922L86.627 27.4229C86.9207 27.6462 86.9207 28.0081 86.627 28.2314L84.7207 29.6797C85.3132 30.4828 85.7917 31.3401 86.1377 32.2402H87.9053C88.3174 32.2402 88.6521 32.4982 88.6523 32.8164V38.0049C88.6522 38.3231 88.3174 38.5811 87.9053 38.5811H86.3379C86.0181 39.5942 85.5332 40.5584 84.9062 41.458L86.627 42.7666C86.9207 42.99 86.9207 43.3528 86.627 43.5762L80.7988 48.0068C80.5051 48.2298 80.029 48.2299 79.7354 48.0068L77.9863 46.6768C77.1063 47.0254 76.1799 47.3171 75.2148 47.542V49.5332C75.2148 49.8514 74.8808 50.1092 74.4688 50.1094H66.2568C65.8446 50.1094 65.5098 49.8515 65.5098 49.5332V47.542C64.4548 47.2961 63.4454 46.9721 62.4932 46.5791L60.6162 48.0068C60.3224 48.2301 59.8455 48.2301 59.5518 48.0068L53.7246 43.5762C53.4308 43.3528 53.4308 42.99 53.7246 42.7666L55.6895 41.2715C55.1242 40.4257 54.6844 39.5242 54.3867 38.5811H52.0723C51.6602 38.5809 51.3264 38.323 51.3262 38.0049V32.8164C51.3264 32.4983 51.6603 32.2404 52.0723 32.2402H54.5879C54.9076 31.4086 55.339 30.6128 55.8701 29.8633L53.7246 28.2314C53.4308 28.0081 53.4308 27.6462 53.7246 27.4229L59.5518 22.9922C59.8455 22.7688 60.3224 22.7688 60.6162 22.9922L62.8369 24.6797C63.6872 24.3483 64.581 24.0719 65.5098 23.8555V21.5762C65.5099 21.2579 65.8447 21 66.2568 21H74.4688ZM70.1758 25.3232C62.8577 25.3233 56.9248 29.9689 56.9248 35.6992C56.925 41.4294 62.8578 46.0741 70.1758 46.0742C77.4937 46.0741 83.4265 41.4294 83.4268 35.6992C83.4268 29.9689 77.4939 25.3233 70.1758 25.3232Z" fill="white"/>
<path d="M100.816 50.1094C101.228 50.1095 101.562 50.3675 101.562 50.6855V52.9648C102.401 53.1602 103.21 53.4058 103.985 53.6953L106.083 52.1016C106.377 51.8782 106.854 51.8782 107.147 52.1016L112.975 56.5322C113.268 56.7556 113.268 57.1175 112.975 57.3408L111.068 58.7891C111.661 59.592 112.138 60.4496 112.484 61.3496H114.254C114.666 61.3498 115 61.6085 115 61.9268V67.1143C115 67.4325 114.666 67.6903 114.254 67.6904H112.686C112.366 68.7038 111.881 69.6685 111.254 70.5684L112.975 71.877C113.268 72.1003 113.268 72.4622 112.975 72.6855L107.147 77.1162C106.854 77.3396 106.377 77.3396 106.083 77.1162L104.335 75.7861C103.455 76.135 102.528 76.4264 101.562 76.6514V78.6426C101.562 78.9608 101.229 79.2186 100.816 79.2188H92.6045C92.1922 79.2188 91.8574 78.9609 91.8574 78.6426V76.6514C90.8025 76.4055 89.7931 76.0815 88.8408 75.6885L86.9639 77.1162C86.6702 77.3394 86.1942 77.3393 85.9004 77.1162L80.0723 72.6855C79.7785 72.4622 79.7786 72.1003 80.0723 71.877L82.0381 70.3818C81.4725 69.5357 81.0322 68.634 80.7344 67.6904H78.4209C78.0086 67.6904 77.6739 67.4326 77.6738 67.1143V61.9268C77.6738 61.6084 78.0086 61.3496 78.4209 61.3496H80.9365C81.2562 60.5181 81.6867 59.7221 82.2178 58.9727L80.0723 57.3408C79.7786 57.1175 79.7785 56.7555 80.0723 56.5322L85.9004 52.1016C86.1941 51.8785 86.6702 51.8784 86.9639 52.1016L89.1855 53.79C90.0357 53.4588 90.9289 53.1812 91.8574 52.9648V50.6855C91.8578 50.3674 92.1924 50.1094 92.6045 50.1094H100.816ZM96.5234 54.4326C89.2055 54.4328 83.2726 59.0784 83.2725 64.8086C83.2727 70.5387 89.2055 75.1834 96.5234 75.1836C103.841 75.1835 109.774 70.5387 109.774 64.8086C109.774 59.0784 103.841 54.4327 96.5234 54.4326Z" fill="white"/>
</svg>
