<svg width="128" height="128" viewBox="0 0 128 128" fill="none" xmlns="http://www.w3.org/2000/svg">
<line x1="27.5" y1="47" x2="27.5" y2="106" stroke="white" stroke-width="3"/>
<line x1="76" y1="104.5" x2="26" y2="104.5" stroke="white" stroke-width="3"/>
<line x1="76" y1="71.5" x2="26" y2="71.5" stroke="white" stroke-width="3"/>
<path d="M13.5 15.5V21.3135C13.6931 21.3246 13.9405 21.3387 14.2314 21.3535C14.9737 21.3912 15.999 21.4366 17.1309 21.4668C19.4075 21.5274 22.0728 21.5247 23.7471 21.2891C23.9665 21.2582 24.104 21.1733 24.2021 21.0596C24.3087 20.9359 24.3971 20.7456 24.4492 20.4727C24.5553 19.9169 24.4881 19.1583 24.3252 18.3506C24.1648 17.5556 23.9228 16.7655 23.7188 16.1699C23.6256 15.898 23.5407 15.6683 23.4766 15.5H13.5Z" fill="white" stroke="white" stroke-linejoin="round"/>
<mask id="path-5-inside-1_19_37" fill="white">
<path d="M41 38C41 38.5523 40.5523 39 40 39H14C13.4477 39 13 38.5523 13 38V22C13 21.4477 13.4477 21 14 21H40C40.5523 21 41 21.4477 41 22V38Z"/>
</mask>
<path d="M42 38C42 39.1046 41.1046 40 40 40H14C12.8954 40 12 39.1046 12 38H14H40H42ZM40 38M13 21H41H13M40 21C41.1046 21 42 21.8954 42 23V38C42 39.1046 41.1046 40 40 40V38V22C40 21.4477 40 21 40 21ZM14 40C12.8954 40 12 39.1046 12 38V23C12 21.8954 12.8954 21 14 21C14 21 14 21.4477 14 22V38V40Z" fill="white" mask="url(#path-5-inside-1_19_37)"/>
<line y1="-0.5" x2="17" y2="-0.5" transform="matrix(1 0 0 -1 23 21)" stroke="white"/>
<path d="M89.5 55.5V61.3135C89.6931 61.3246 89.9405 61.3387 90.2314 61.3535C90.9737 61.3912 91.999 61.4366 93.1309 61.4668C95.4075 61.5274 98.0728 61.5247 99.7471 61.2891C99.9665 61.2582 100.104 61.1733 100.202 61.0596C100.309 60.9359 100.397 60.7456 100.449 60.4727C100.555 59.9169 100.488 59.1583 100.325 58.3506C100.165 57.5556 99.9228 56.7655 99.7188 56.1699C99.6256 55.898 99.5407 55.6683 99.4766 55.5H89.5Z" fill="white" stroke="white" stroke-linejoin="round"/>
<mask id="path-9-inside-2_19_37" fill="white">
<path d="M117 78C117 78.5523 116.552 79 116 79H90C89.4477 79 89 78.5523 89 78V62C89 61.4477 89.4477 61 90 61H116C116.552 61 117 61.4477 117 62V78Z"/>
</mask>
<path d="M118 78C118 79.1046 117.105 80 116 80H90C88.8954 80 88 79.1046 88 78H90H116H118ZM116 78M89 61H117H89M116 61C117.105 61 118 61.8954 118 63V78C118 79.1046 117.105 80 116 80V78V62C116 61.4477 116 61 116 61ZM90 80C88.8954 80 88 79.1046 88 78V63C88 61.8954 88.8954 61 90 61C90 61 90 61.4477 90 62V78V80Z" fill="white" mask="url(#path-9-inside-2_19_37)"/>
<line y1="-0.5" x2="17" y2="-0.5" transform="matrix(1 0 0 -1 99 61)" stroke="white"/>
<path d="M89.5 91.5V97.3135C89.6931 97.3246 89.9405 97.3387 90.2314 97.3535C90.9737 97.3912 91.999 97.4366 93.1309 97.4668C95.4075 97.5274 98.0728 97.5247 99.7471 97.2891C99.9665 97.2582 100.104 97.1733 100.202 97.0596C100.309 96.9359 100.397 96.7456 100.449 96.4727C100.555 95.9169 100.488 95.1583 100.325 94.3506C100.165 93.5556 99.9228 92.7655 99.7188 92.1699C99.6256 91.898 99.5407 91.6683 99.4766 91.5H89.5Z" fill="white" stroke="white" stroke-linejoin="round"/>
<mask id="path-13-inside-3_19_37" fill="white">
<path d="M117 114C117 114.552 116.552 115 116 115H90C89.4477 115 89 114.552 89 114V98C89 97.4477 89.4477 97 90 97H116C116.552 97 117 97.4477 117 98V114Z"/>
</mask>
<path d="M118 114C118 115.105 117.105 116 116 116H90C88.8954 116 88 115.105 88 114H90H116H118ZM116 114M89 97H117H89M116 97C117.105 97 118 97.8954 118 99V114C118 115.105 117.105 116 116 116V114V98C116 97.4477 116 97 116 97ZM90 116C88.8954 116 88 115.105 88 114V99C88 97.8954 88.8954 97 90 97C90 97 90 97.4477 90 98V114V116Z" fill="white" mask="url(#path-13-inside-3_19_37)"/>
<line y1="-0.5" x2="17" y2="-0.5" transform="matrix(1 0 0 -1 99 97)" stroke="white"/>
</svg>
