<svg width="128" height="128" viewBox="0 0 128 128" fill="none" xmlns="http://www.w3.org/2000/svg">
<path d="M81.3387 77.3636C81.3387 79.4724 77.9159 81.1818 73.6935 81.1818C69.4712 81.1818 66.0484 79.4724 66.0484 77.3636C66.0484 75.2549 69.4712 73.5455 73.6935 73.5455C74.5874 73.5455 75.4446 73.6247 76.2419 73.7654V52.5455H50.7581V79.2727C50.7581 81.3814 47.3352 83.0909 43.1129 83.0909C38.8906 83.0909 35.4677 81.3814 35.4677 79.2727C35.4677 77.164 38.8906 75.4545 43.1129 75.4545C44.0068 75.4545 44.864 75.5337 45.6613 75.6745V48.7273H81.3387V77.3636Z" fill="#D9D9D9"/>
<path fill-rule="evenodd" clip-rule="evenodd" d="M103 37.2727V106H24V22H82.6129L103 37.2727ZM26.5484 104.091H100.452V38.0632L99.3964 37.2727H80.0645V23.9091H26.5484V104.091ZM82.6129 35.3636H96.848L82.6129 24.6996V35.3636Z" fill="#D9D9D9"/>
</svg>
