<svg width="32" height="12" viewBox="0 0 32 12" fill="none" xmlns="http://www.w3.org/2000/svg">
<path d="M16.1559 4.11261L17.0639 3.69356L16 2L15.092 2.41906L15.624 3.26584L16.1559 4.11261ZM3.90796 7.58095C3.40651 7.81239 3.23816 8.37912 3.53195 8.84678C3.82574 9.31444 4.47041 9.50594 4.97186 9.2745L4.43991 8.42772L3.90796 7.58095ZM15.624 3.26584L15.092 2.41906L3.90796 7.58095L4.43991 8.42772L4.97186 9.2745L16.1559 4.11261L15.624 3.26584Z" fill="white"/>
<path d="M15.8441 4.11261L14.9361 3.69356L16 2L16.908 2.41906L16.376 3.26584L15.8441 4.11261ZM28.092 7.58095C28.5935 7.81239 28.7618 8.37912 28.468 8.84678C28.1743 9.31444 27.5296 9.50594 27.0281 9.2745L27.5601 8.42772L28.092 7.58095ZM16.376 3.26584L16.908 2.41906L28.092 7.58095L27.5601 8.42772L27.0281 9.2745L15.8441 4.11261L16.376 3.26584Z" fill="white"/>
</svg>
