<svg width="32" height="12" viewBox="0 0 32 12" fill="none" xmlns="http://www.w3.org/2000/svg">
<path d="M16.1559 7.58093L17.0639 7.99999L16 9.69354L15.092 9.27448L15.624 8.4277L16.1559 7.58093ZM3.90796 4.1126C3.40651 3.88116 3.23816 3.31442 3.53195 2.84676C3.82574 2.3791 4.47041 2.1876 4.97186 2.41904L4.43991 3.26582L3.90796 4.1126ZM15.624 8.4277L15.092 9.27448L3.90796 4.1126L4.43991 3.26582L4.97186 2.41904L16.1559 7.58093L15.624 8.4277Z" fill="white"/>
<path d="M15.8441 7.58093L14.9361 7.99999L16 9.69354L16.908 9.27448L16.376 8.4277L15.8441 7.58093ZM28.092 4.1126C28.5935 3.88116 28.7618 3.31442 28.468 2.84676C28.1743 2.3791 27.5296 2.1876 27.0281 2.41904L27.5601 3.26582L28.092 4.1126ZM16.376 8.4277L16.908 9.27448L28.092 4.1126L27.5601 3.26582L27.0281 2.41904L15.8441 7.58093L16.376 8.4277Z" fill="white"/>
</svg>
